<svg width="12" height="16" viewBox="0 0 12 16" fill="none" xmlns="http://www.w3.org/2000/svg">
<path d="M0.402 15.4147C0.523324 15.4778 0.659544 15.5067 0.796037 15.4983C0.93253 15.4898 1.06414 15.4443 1.17675 15.3667L10.9268 8.61674C11.0264 8.54771 11.1078 8.45557 11.164 8.3482C11.2203 8.24084 11.2496 8.12144 11.2496 8.00024C11.2496 7.87903 11.2203 7.75964 11.164 7.65227C11.1078 7.5449 11.0264 7.45276 10.9268 7.38374L1.17675 0.633735C1.06423 0.55588 0.932557 0.510289 0.795985 0.5019C0.659414 0.49351 0.52315 0.522642 0.401947 0.58614C0.280745 0.649638 0.179222 0.745083 0.108373 0.86214C0.0375231 0.979198 4.61875e-05 1.11341 1.01873e-08 1.25024V14.7502C-2.25505e-05 14.8871 0.0374273 15.0214 0.10829 15.1386C0.179154 15.2557 0.280727 15.3512 0.402 15.4147Z" fill="white"/>
</svg>
