<svg width="32" height="32" viewBox="0 0 32 32" fill="none" xmlns="http://www.w3.org/2000/svg">
<path d="M20.32 16.0002C20.32 13.6002 18.4 11.6802 16 11.6802C13.6 11.6802 11.68 13.6002 11.68 16.0002C11.68 18.4002 13.6 20.3202 16 20.3202C18.4 20.3202 20.32 18.4002 20.32 16.0002ZM22.56 16.0002C22.56 19.6802 19.68 22.5602 16 22.5602C12.32 22.5602 9.44 19.6802 9.44 16.0002C9.44 12.3202 12.32 9.4402 16 9.4402C19.68 9.4402 22.56 12.3202 22.56 16.0002ZM24.32 9.12019C24.32 10.0802 23.68 10.7202 22.72 10.7202C21.76 10.7202 21.12 10.0802 21.12 9.12019C21.12 8.16019 21.76 7.52019 22.72 7.52019C23.68 7.52019 24.32 8.32019 24.32 9.12019ZM16 5.4402C14.08 5.4402 10.08 5.2802 8.48 5.9202C7.36 6.4002 6.4 7.3602 6.08 8.4802C5.44 10.0802 5.6 14.0802 5.6 16.0002C5.6 17.9202 5.44 21.9202 6.08 23.5202C6.4 24.6402 7.36 25.6002 8.48 25.9202C10.08 26.5602 14.24 26.4002 16 26.4002C17.76 26.4002 21.92 26.5602 23.52 25.9202C24.64 25.4402 25.44 24.6402 25.92 23.5202C26.56 21.7602 26.4 17.7602 26.4 16.0002C26.4 14.2402 26.56 10.0802 25.92 8.4802C25.6 7.3602 24.64 6.4002 23.52 6.08019C21.92 5.28019 17.92 5.4402 16 5.4402ZM28.8 16.0002V21.2802C28.8 23.2002 28.16 25.1202 26.72 26.7202C25.28 28.1602 23.36 28.8002 21.28 28.8002H10.72C8.8 28.8002 6.88 28.1602 5.28 26.7202C4 25.2802 3.2 23.3602 3.2 21.2802V16.0002V10.7202C3.2 8.64019 4 6.7202 5.28 5.28019C6.88 4.0002 8.8 3.2002 10.72 3.2002H21.28C23.2 3.2002 25.12 3.8402 26.72 5.28019C28 6.7202 28.8 8.64019 28.8 10.7202V16.0002Z" fill="white"/>
</svg>
