<svg width="24" height="24" viewBox="0 0 24 24" fill="none" xmlns="http://www.w3.org/2000/svg">
<path fill-rule="evenodd" clip-rule="evenodd" d="M3.6 3.6001C3.91826 3.6001 4.22349 3.72653 4.44853 3.95157C4.67357 4.17661 4.8 4.48184 4.8 4.8001V19.2001C4.8 19.5184 4.67357 19.8236 4.44853 20.0486C4.22349 20.2737 3.91826 20.4001 3.6 20.4001C3.28174 20.4001 2.97652 20.2737 2.75147 20.0486C2.52643 19.8236 2.4 19.5184 2.4 19.2001V4.8001C2.4 4.48184 2.52643 4.17661 2.75147 3.95157C2.97652 3.72653 3.28174 3.6001 3.6 3.6001ZM12.8484 7.5517C13.0734 7.77673 13.1997 8.0819 13.1997 8.4001C13.1997 8.71829 13.0734 9.02346 12.8484 9.2485L11.2968 10.8001H20.4C20.7183 10.8001 21.0235 10.9265 21.2485 11.1516C21.4736 11.3766 21.6 11.6818 21.6 12.0001C21.6 12.3184 21.4736 12.6236 21.2485 12.8486C21.0235 13.0737 20.7183 13.2001 20.4 13.2001H11.2968L12.8484 14.7517C13.067 14.978 13.1879 15.2811 13.1852 15.5958C13.1825 15.9104 13.0563 16.2114 12.8338 16.4339C12.6113 16.6564 12.3103 16.7826 11.9957 16.7853C11.681 16.788 11.3779 16.6671 11.1516 16.4485L7.5516 12.8485C7.32664 12.6235 7.20026 12.3183 7.20026 12.0001C7.20026 11.6819 7.32664 11.3767 7.5516 11.1517L11.1516 7.5517C11.3766 7.32673 11.6818 7.20035 12 7.20035C12.3182 7.20035 12.6234 7.32673 12.8484 7.5517Z" fill="#565956"/>
</svg>
