<svg width="32" height="32" viewBox="0 0 32 32" fill="none" xmlns="http://www.w3.org/2000/svg">
<g clip-path="url(#clip0_1_1089)">
<path d="M16 30.001C12.287 30.001 8.72601 28.526 6.1005 25.9005C3.475 23.275 2 19.714 2 16.001C2 12.2879 3.475 8.72699 6.1005 6.10148C8.72601 3.47597 12.287 2.00098 16 2.00098C19.713 2.00098 23.274 3.47597 25.8995 6.10148C28.525 8.72699 30 12.2879 30 16.001C30 19.714 28.525 23.275 25.8995 25.9005C23.274 28.526 19.713 30.001 16 30.001ZM16 32.001C20.2435 32.001 24.3131 30.3153 27.3137 27.3147C30.3143 24.3141 32 20.2444 32 16.001C32 11.7575 30.3143 7.68785 27.3137 4.68727C24.3131 1.68669 20.2435 0.000976563 16 0.000976562C11.7565 0.000976563 7.68687 1.68669 4.68629 4.68727C1.68571 7.68785 0 11.7575 0 16.001C0 20.2444 1.68571 24.3141 4.68629 27.3147C7.68687 30.3153 11.7565 32.001 16 32.001Z" fill="#609484"/>
<path d="M21.94 9.94099C21.9258 9.9548 21.9124 9.96949 21.9 9.98499L14.954 18.835L10.768 14.647C10.4837 14.382 10.1076 14.2378 9.71896 14.2446C9.33036 14.2515 8.95959 14.4089 8.68476 14.6837C8.40994 14.9586 8.25251 15.3293 8.24566 15.7179C8.2388 16.1065 8.38305 16.4826 8.64801 16.767L13.94 22.061C14.0826 22.2033 14.2523 22.3154 14.4392 22.3907C14.626 22.466 14.8261 22.5028 15.0275 22.4991C15.2289 22.4954 15.4275 22.4511 15.6114 22.369C15.7953 22.2868 15.9608 22.1685 16.098 22.021L24.082 12.041C24.3539 11.7556 24.5025 11.3748 24.4958 10.9807C24.4891 10.5867 24.3275 10.2111 24.0461 9.93518C23.7647 9.65927 23.386 9.5052 22.9919 9.50629C22.5978 9.50738 22.2199 9.66353 21.94 9.94099Z" fill="#609484"/>
</g>
<defs>
<clipPath id="clip0_1_1089">
<rect width="32" height="32" fill="white" transform="translate(0 0.000976562)"/>
</clipPath>
</defs>
</svg>
