<svg width="24" height="24" viewBox="0 0 24 24" fill="none" xmlns="http://www.w3.org/2000/svg">
<path d="M3.6 1.2002C3.28174 1.2002 2.97652 1.32662 2.75147 1.55167C2.52643 1.77671 2.4 2.08194 2.4 2.4002C2.4 2.71846 2.52643 3.02368 2.75147 3.24872C2.97652 3.47377 3.28174 3.6002 3.6 3.6002H5.064L5.43 5.0666C5.43364 5.08348 5.43764 5.10028 5.442 5.117L7.0716 11.633L6 12.7034C4.488 14.2154 5.5584 16.8002 7.6968 16.8002H18C18.3183 16.8002 18.6235 16.6738 18.8485 16.4487C19.0736 16.2237 19.2 15.9185 19.2 15.6002C19.2 15.2819 19.0736 14.9767 18.8485 14.7517C18.6235 14.5266 18.3183 14.4002 18 14.4002H7.6968L8.8968 13.2002H16.8C17.0228 13.2001 17.2412 13.1379 17.4306 13.0207C17.6201 12.9035 17.7732 12.7359 17.8728 12.5366L21.4728 5.3366C21.5642 5.15369 21.6073 4.95046 21.5981 4.7462C21.5889 4.54194 21.5277 4.34342 21.4202 4.16947C21.3128 3.99552 21.1626 3.85192 20.9841 3.75229C20.8055 3.65266 20.6045 3.6003 20.4 3.6002H7.536L7.164 2.1086C7.099 1.8491 6.94914 1.61877 6.73825 1.45418C6.52736 1.2896 6.26752 1.2002 6 1.2002H3.6ZM19.2 19.8002C19.2 20.2776 19.0104 20.7354 18.6728 21.073C18.3352 21.4106 17.8774 21.6002 17.4 21.6002C16.9226 21.6002 16.4648 21.4106 16.1272 21.073C15.7896 20.7354 15.6 20.2776 15.6 19.8002C15.6 19.3228 15.7896 18.865 16.1272 18.5274C16.4648 18.1898 16.9226 18.0002 17.4 18.0002C17.8774 18.0002 18.3352 18.1898 18.6728 18.5274C19.0104 18.865 19.2 19.3228 19.2 19.8002ZM7.8 21.6002C8.27739 21.6002 8.73523 21.4106 9.07279 21.073C9.41036 20.7354 9.6 20.2776 9.6 19.8002C9.6 19.3228 9.41036 18.865 9.07279 18.5274C8.73523 18.1898 8.27739 18.0002 7.8 18.0002C7.32261 18.0002 6.86477 18.1898 6.52721 18.5274C6.18964 18.865 6 19.3228 6 19.8002C6 20.2776 6.18964 20.7354 6.52721 21.073C6.86477 21.4106 7.32261 21.6002 7.8 21.6002Z" fill="#565956"/>
</svg>
