<svg width="16" height="16" viewBox="0 0 16 16" fill="none" xmlns="http://www.w3.org/2000/svg">
<path d="M6.9824 12.6359L2.9824 6.2359C2.86887 6.05426 2.80603 5.84553 2.80041 5.6314C2.79479 5.41727 2.84658 5.20553 2.95042 5.01818C3.05427 4.83083 3.20636 4.67468 3.39093 4.56596C3.57549 4.45724 3.78579 4.3999 4 4.3999H12C12.2142 4.3999 12.4245 4.45724 12.6091 4.56596C12.7936 4.67468 12.9457 4.83083 13.0496 5.01818C13.1534 5.20553 13.2052 5.41727 13.1996 5.6314C13.194 5.84553 13.1311 6.05426 13.0176 6.2359L9.0176 12.6359C8.90973 12.8085 8.75974 12.9508 8.58172 13.0495C8.40371 13.1481 8.20353 13.1999 8 13.1999C7.79647 13.1999 7.59629 13.1481 7.41827 13.0495C7.24026 12.9508 7.09027 12.8085 6.9824 12.6359Z" fill="#948260"/>
</svg>
