<?xml version="1.0" standalone="no"?>
<!DOCTYPE svg PUBLIC "-//W3C//DTD SVG 20010904//EN"
 "http://www.w3.org/TR/2001/REC-SVG-20010904/DTD/svg10.dtd">
<svg version="1.0" xmlns="http://www.w3.org/2000/svg"
 width="226.000000pt" height="226.000000pt" viewBox="0 0 226.000000 226.000000"
 preserveAspectRatio="xMidYMid meet">
<metadata>
Created by potrace 1.14, written by Peter Selinger 2001-2017
</metadata>
<g transform="translate(0.000000,226.000000) scale(0.100000,-0.100000)"
fill="#000000" stroke="none">
<path d="M250 1479 c-80 -44 -169 -92 -197 -106 l-53 -27 0 -338 0 -338 361 0
c284 0 360 3 357 13 -4 9 -63 13 -241 15 l-237 2 0 241 c0 224 -1 240 -17 237
-16 -3 -18 -24 -21 -241 l-2 -237 -80 0 -80 0 2 311 3 310 70 38 c39 20 118
63 176 94 58 31 111 57 116 57 6 0 71 -36 146 -80 134 -80 167 -93 167 -66 0
14 -274 185 -308 192 -9 2 -82 -33 -162 -77z"/>
<path d="M473 1262 c-18 -2 -34 -6 -34 -10 -4 -21 -5 -249 -1 -259 2 -7 10
-13 18 -13 15 0 16 5 16 68 0 39 2 42 27 42 21 0 33 -10 59 -55 32 -53 62 -72
62 -40 0 9 -12 33 -26 55 l-26 39 21 27 c26 33 27 84 4 113 -20 24 -70 38
-120 33z m74 -46 c37 -12 37 -71 -1 -86 -11 -4 -32 -7 -46 -6 -23 1 -25 5 -26
46 -1 25 0 48 2 51 4 8 42 5 71 -5z"/>
<path d="M697 1253 c-15 -14 -7 -43 12 -43 23 0 34 23 18 39 -13 13 -21 14
-30 4z"/>
<path d="M1077 1254 c-4 -4 -7 -68 -7 -141 0 -123 2 -134 18 -131 14 3 18 16
20 68 4 75 20 101 60 94 42 -8 48 -19 50 -85 0 -34 5 -66 11 -72 20 -20 30 6
28 75 -3 63 -6 73 -31 94 -28 25 -70 31 -96 14 -12 -8 -16 -1 -20 37 -5 44
-18 62 -33 47z"/>
<path d="M1519 1236 c0 -14 0 -69 0 -121 0 -52 0 -104 0 -115 1 -18 8 -20 90
-20 67 0 90 3 94 14 9 22 -2 26 -75 26 -64 0 -68 1 -69 23 0 12 -1 65 -2 117
-2 81 -4 95 -19 98 -13 3 -18 -3 -19 -22z"/>
<path d="M1780 1250 c-18 -11 -4 -42 17 -38 10 2 19 10 21 19 4 19 -19 31 -38
19z"/>
<path d="M1940 1240 c-11 -11 -20 -27 -20 -35 0 -8 -10 -24 -22 -35 -22 -20
-22 -21 -2 -26 18 -5 20 -13 19 -72 -1 -78 2 -92 21 -92 15 0 15 3 18 95 1 53
3 60 24 65 33 7 32 24 -1 28 -21 3 -27 8 -23 19 3 8 6 16 6 19 0 2 14 11 30
19 17 9 28 20 25 25 -10 17 -54 11 -75 -10z"/>
<path d="M694 1166 c-3 -7 -4 -51 -2 -97 2 -67 6 -84 18 -84 23 0 28 180 5
189 -9 3 -18 0 -21 -8z"/>
<path d="M851 1153 c-75 -70 -23 -181 79 -171 33 3 61 30 47 45 -4 4 -16 2
-25 -4 -15 -9 -44 -11 -73 -4 -8 1 -29 49 -29 65 0 21 33 57 55 60 11 2 30 -3
43 -11 25 -15 44 -10 36 11 -7 17 -48 36 -79 36 -14 0 -38 -12 -54 -27z"/>
<path d="M1787 1173 c-4 -3 -7 -49 -7 -100 0 -85 2 -94 18 -91 14 3 17 16 18
83 2 105 -6 132 -29 108z"/>
<path d="M2095 1158 c-53 -47 -49 -135 7 -164 51 -26 152 -4 121 27 -8 8 -17
8 -31 0 -11 -6 -29 -11 -39 -11 -19 0 -63 34 -63 48 0 5 33 8 72 8 63 -1 73 2
76 17 7 34 -8 67 -38 82 -41 21 -75 19 -105 -7z m96 -29 c27 -27 14 -37 -44
-34 -58 4 -57 3 -51 19 5 14 40 34 62 35 6 1 22 -9 33 -20z"/>
<path d="M1332 1087 c-18 -21 -4 -27 55 -27 46 0 54 3 51 17 -4 23 -89 31
-106 10z"/>
<path d="M467 892 c-24 -5 -18 -34 11 -47 24 -11 30 -35 9 -35 -7 0 -19 6 -26
13 -11 10 -13 9 -9 -3 6 -19 48 -26 58 -9 10 16 1 39 -15 39 -7 0 -19 7 -26
17 -13 15 -11 16 14 11 15 -3 27 -2 27 2 0 11 -22 17 -43 12z"/>
<path d="M665 892 c-3 -3 -5 -25 -5 -49 0 -44 0 -44 33 -41 30 3 32 5 30 38 0
19 -1 38 -2 41 -1 9 -49 18 -56 11z m40 -31 c-3 -11 -1 -22 5 -26 15 -9 2 -25
-21 -25 -21 0 -26 25 -6 34 10 5 10 7 0 12 -20 9 -15 24 8 24 15 0 19 -4 14
-19z"/>
<path d="M773 893 c-23 -8 -14 -43 13 -53 28 -11 23 -35 -7 -27 -11 3 -19 1
-19 -5 0 -5 12 -8 28 -6 36 4 45 45 11 50 -12 2 -24 9 -27 17 -3 10 2 13 22 9
14 -3 26 -2 26 2 0 10 -31 18 -47 13z"/>
<path d="M865 880 c-18 -20 -20 -51 -3 -68 15 -15 55 -16 63 -2 4 7 -2 9 -17
5 -16 -4 -29 -1 -38 10 -19 23 -2 48 36 55 l29 6 -27 6 c-19 3 -32 0 -43 -12z"/>
<path d="M967 886 c-9 -9 -11 -27 -8 -52 3 -27 6 -32 9 -16 4 28 9 28 31 0 18
-21 18 -21 15 18 -3 53 -2 51 -19 58 -8 3 -20 -1 -28 -8z m33 -21 c0 -8 -7
-15 -15 -15 -8 0 -15 7 -15 15 0 8 7 15 15 15 8 0 15 -7 15 -15z"/>
<path d="M1103 892 c-11 -8 -12 -77 0 -88 4 -4 7 0 7 9 0 10 7 17 15 17 17 0
36 32 27 46 -10 15 -37 23 -49 16z m35 -29 c-5 -25 -28 -28 -28 -4 0 12 6 21
16 21 9 0 14 -7 12 -17z"/>
<path d="M1195 889 c-16 -4 -22 -7 -12 -8 16 -1 18 -7 21 -53 1 -9 5 -20 9
-25 5 -4 7 10 6 31 -3 31 0 40 15 46 30 10 -2 18 -39 9z"/>
<path d="M1338 886 c-36 -27 -17 -86 27 -86 29 0 45 19 45 52 0 21 -6 31 -26
38 -30 12 -25 12 -46 -4z m59 -22 c8 -22 -10 -49 -32 -49 -22 0 -40 27 -32 49
8 21 56 21 64 0z"/>
<path d="M1509 860 c-4 -25 -3 -49 1 -53 12 -13 16 15 10 58 l-6 40 -5 -45z"/>
<path d="M1608 883 c-10 -12 -9 -18 7 -29 10 -8 22 -14 27 -14 4 0 8 -7 8 -15
0 -18 -21 -20 -39 -2 -11 10 -13 9 -9 -3 5 -18 37 -24 57 -11 10 7 11 13 2 30
-7 12 -16 19 -20 16 -5 -2 -15 3 -22 12 -13 15 -11 16 19 10 18 -4 31 -3 28 2
-11 17 -45 19 -58 4z"/>
<path d="M1698 859 c-5 -53 -1 -59 40 -57 l37 1 -32 4 c-38 5 -46 33 -10 33
17 0 19 2 7 9 -8 6 -18 7 -22 5 -4 -3 -8 2 -8 10 0 11 10 16 32 16 38 0 33 9
-9 14 -29 3 -31 1 -35 -35z"/>
<path d="M1809 890 c-15 -10 -21 -78 -7 -86 4 -3 8 4 8 15 0 27 17 27 25 1 3
-11 11 -20 16 -20 6 0 7 5 3 12 -4 7 -7 27 -6 44 3 34 -15 48 -39 34z m31 -25
c0 -8 -7 -15 -15 -15 -8 0 -15 7 -15 15 0 8 7 15 15 15 8 0 15 -7 15 -15z"/>
<path d="M2047 885 c-20 -14 -22 -56 -5 -73 14 -14 58 -16 58 -3 0 5 -8 7 -18
4 -25 -6 -45 21 -37 47 5 17 13 21 31 17 28 -5 33 8 6 15 -10 3 -26 0 -35 -7z"/>
<path d="M2137 885 c-1 -5 -3 -26 -2 -45 0 -33 2 -35 35 -36 26 -1 28 -1 8 3
-34 5 -37 30 -5 36 l22 4 -22 2 c-33 2 -29 31 4 31 14 0 23 3 20 7 -11 11 -56
10 -60 -2z"/>
<path d="M545 858 c1 -43 11 -58 40 -58 29 0 39 15 40 58 0 44 -13 40 -17 -5
-2 -30 -7 -38 -23 -38 -16 0 -21 8 -23 38 -4 45 -17 49 -17 5z"/>
<path d="M1046 850 c0 -22 3 -43 7 -46 4 -4 7 14 7 39 0 26 -3 47 -7 47 -5 0
-8 -18 -7 -40z"/>
<path d="M1273 845 c0 -25 3 -45 6 -45 4 0 8 20 8 45 1 25 -2 45 -6 45 -5 0
-8 -20 -8 -45z"/>
<path d="M1449 890 c-6 -26 -5 -82 2 -86 5 -3 9 10 9 28 1 31 1 32 15 14 8
-11 17 -17 20 -14 3 3 -5 19 -19 34 -14 16 -26 27 -27 24z"/>
<path d="M1888 849 c10 -22 22 -40 27 -38 13 4 47 79 36 79 -5 0 -15 -17 -24
-37 l-14 -37 -12 37 c-7 20 -17 37 -21 37 -5 0 -1 -18 8 -41z"/>
<path d="M1980 846 c0 -26 4 -45 9 -42 10 7 8 72 -2 83 -4 3 -7 -15 -7 -41z"/>
</g>
</svg>
